<svg width="146" height="59" viewBox="0 0 146 59" fill="none" xmlns="http://www.w3.org/2000/svg">
<g opacity="0.3" clip-path="url(#clip0)">
<path d="M11.3657 12.8015C10.695 12.3246 9.96007 12.102 8.71424 12.0384C8.13916 12.0066 7.81991 12.0066 7.34068 12.0066C7.21294 12.0066 7.14917 12.0703 7.14917 12.2291V19.7623C7.14917 21.8602 7.24501 22.4007 8.26708 22.8137C9.12952 23.1635 9.86422 23.1952 10.5989 23.1952C12.0366 23.1952 14.4643 22.4321 14.4643 19.1264C14.4643 17.1557 13.7936 14.4859 11.3657 12.8015ZM7.14917 10.2586C7.14917 10.513 7.24501 10.5764 7.37275 10.6082C7.66029 10.672 8.13934 10.7035 8.87423 10.7035C9.92837 10.7035 10.6312 10.5766 11.174 10.0998C12.0046 9.43217 12.4838 8.2881 12.4838 6.73063C12.4838 4.60075 11.238 1.80364 8.49066 1.80364C8.0435 1.80364 7.75595 1.80364 7.43652 1.86728C7.21276 1.93093 7.14898 2.05803 7.14898 2.40759V10.2586H7.14917ZM3.31564 9.7181C3.31564 4.88667 3.31564 3.99661 3.25168 2.97945C3.18772 1.89901 2.93226 1.39025 1.87812 1.16778C1.62265 1.10432 1.07945 1.07241 0.63229 1.07241C0.280974 1.07241 0.0892792 1.00877 0.0892792 0.786296C0.0892792 0.563826 0.312861 0.500369 0.792098 0.5C2.48509 0.5 4.4977 0.595555 5.13656 0.595555C6.70182 0.595555 7.94783 0.5 9.03386 0.500369C14.8158 0.500369 15.8381 3.5834 15.8381 5.26816C15.8381 7.87452 14.3366 9.43181 12.5797 10.8306C15.1992 11.7203 18.3935 13.9775 18.3935 17.6964C18.3935 21.0976 15.7421 24.6256 9.86422 24.6256C9.48102 24.6256 8.55462 24.562 7.62803 24.53C6.66975 24.4666 5.71146 24.4347 5.23222 24.4347C4.88072 24.4347 4.1779 24.4347 3.41131 24.4666C2.6766 24.4666 1.84623 24.53 1.20719 24.53C0.791912 24.53 0.568145 24.4347 0.568145 24.2122C0.568145 24.0534 0.696065 23.9578 1.07945 23.9578C1.55851 23.9578 1.94189 23.8944 2.22944 23.8309C2.8683 23.7036 3.0281 23.0045 3.15584 22.0825C3.31546 20.7477 3.31546 18.2363 3.31546 15.3121V9.7181H3.31564ZM22.7048 11.9114C22.7048 7.81106 22.7369 7.0481 22.6729 6.18976C22.609 5.23624 22.3535 4.98204 21.459 4.72766C21.2354 4.66383 20.7562 4.63229 20.3729 4.63229C20.0533 4.63229 19.8939 4.53674 19.8939 4.34618C19.8939 4.15544 20.0854 4.0918 20.5007 4.0918C22.0022 4.0918 23.8869 4.15544 24.7172 4.15544C25.4202 4.15544 27.3049 4.0918 28.3272 4.0918C28.7424 4.0918 28.9339 4.15544 28.9339 4.34618C28.9339 4.53674 28.7743 4.63229 28.487 4.63229C28.1674 4.63229 28.0077 4.66402 27.6566 4.72766C26.9217 4.85476 26.6981 5.23624 26.634 6.18976C26.5702 7.04791 26.5702 7.81106 26.5702 11.9114V15.694C26.5702 19.6353 27.3368 21.1611 28.7104 22.2417C29.9562 23.2273 31.2981 23.3223 32.2565 23.3223C33.4701 23.3223 34.9078 22.9728 36.0257 21.892C37.591 20.4298 37.6549 18.0777 37.6549 15.3123V11.9114C37.6549 7.81106 37.6231 7.0481 37.591 6.18976C37.527 5.26816 37.3034 4.98204 36.4091 4.72766C36.1855 4.66383 35.7063 4.63229 35.3867 4.63229C35.0672 4.63229 34.9076 4.53674 34.9076 4.34618C34.9076 4.15544 35.0993 4.0918 35.4827 4.0918C36.9202 4.0918 38.8049 4.15544 38.8368 4.15544C39.1566 4.15544 41.0413 4.0918 42.1271 4.0918C42.5105 4.0918 42.7024 4.15544 42.7024 4.34618C42.7024 4.53674 42.5426 4.63229 42.2232 4.63229C41.9037 4.63229 41.7439 4.66402 41.3926 4.72766C40.6258 4.85476 40.4345 5.23624 40.3704 6.18976C40.3385 7.04791 40.3064 7.81106 40.3064 11.9114V14.8039C40.3064 17.8235 39.987 21.0023 37.6231 22.941C35.6423 24.5939 33.5022 24.8798 31.6813 24.8798C30.2117 24.8798 27.3049 24.8163 25.2604 23.0364C23.8229 21.7966 22.7046 19.7944 22.7046 15.8847V11.9114H22.7048ZM45.3209 24.1805C44.8735 23.9899 44.7779 23.8624 44.7779 23.2587C44.7779 21.7964 44.9054 20.112 44.9373 19.6671C44.9373 19.2539 45.065 18.9676 45.2888 18.9676C45.5445 18.9676 45.5763 19.2219 45.5763 19.4127C45.5763 19.7623 45.6722 20.3343 45.832 20.8111C46.439 22.8136 48.5472 23.4813 50.3044 23.4813C52.7321 23.4813 54.2015 21.9556 54.2015 20.0486C54.2015 18.8724 53.9138 17.6964 51.4223 16.2341L49.7931 15.2804C46.4709 13.3416 45.3848 11.5296 45.3848 9.14588C45.3848 5.84019 48.5793 3.7105 52.4764 3.7105C54.2972 3.7105 55.735 3.96488 56.4696 4.15544C56.7252 4.2189 56.8528 4.31427 56.8528 4.50519C56.8528 4.85494 56.7571 5.61772 56.7571 7.74742C56.7571 8.31946 56.6292 8.60538 56.4056 8.60538C56.2139 8.60538 56.1183 8.44656 56.1183 8.12872C56.1183 7.87433 55.9903 7.04791 55.3834 6.34859C54.9681 5.84019 54.0739 5.07741 52.2527 5.07741C50.2404 5.07741 48.4193 6.12612 48.4193 7.9697C48.4193 9.17779 48.8665 10.1311 51.39 11.5298L52.5402 12.1653C56.2456 14.1998 57.3958 16.2658 57.3958 18.7134C57.3958 20.7156 56.6288 22.3371 54.5845 23.7673C53.2428 24.721 51.39 24.8794 49.8887 24.8794C48.2599 24.8796 46.5346 24.7212 45.3209 24.1805ZM62.1233 11.9114C62.1233 7.81106 62.1233 7.0481 62.0916 6.18976C62.0276 5.26816 61.7401 4.95013 61.1331 4.75939C60.8137 4.66383 60.4622 4.63247 60.1108 4.63247C59.8235 4.63247 59.6635 4.56883 59.6635 4.31445C59.6635 4.15562 59.8871 4.09198 60.3344 4.09198C61.3887 4.09198 63.3051 4.15562 64.1038 4.15562C64.8068 4.15562 66.6275 4.09198 67.7137 4.09198C68.0651 4.09198 68.2888 4.15562 68.2888 4.31445C68.2888 4.56883 68.1292 4.63247 67.8415 4.63247C67.5541 4.63247 67.3305 4.66402 67.0111 4.72785C66.2443 4.85494 66.0207 5.23643 65.9568 6.18995C65.893 7.0481 65.893 7.81125 65.893 11.9116V16.6794C65.893 19.2858 65.893 21.4474 66.0206 22.5918C66.1164 23.3227 66.3083 23.7359 67.1387 23.863C67.5219 23.9268 68.1609 23.9586 68.5762 23.9586C68.8956 23.9586 69.0233 24.1174 69.0233 24.2449C69.0233 24.4354 68.7998 24.5308 68.4801 24.5308C66.6275 24.5308 64.7108 24.4354 63.944 24.4354C63.3051 24.4354 61.3886 24.5308 60.2705 24.5308C59.919 24.5308 59.7275 24.4354 59.7275 24.2449C59.7275 24.1176 59.8233 23.9586 60.1746 23.9586C60.5899 23.9586 60.9093 23.9268 61.1648 23.863C61.7399 23.7361 61.8997 23.3546 61.9953 22.5601C62.1229 21.4476 62.1229 19.286 62.1229 16.6796V11.9114H62.1233ZM75.5399 20.8431C75.6036 22.9408 75.9551 23.5765 76.4981 23.7674C76.9774 23.9263 77.5204 23.958 77.9676 23.958C78.287 23.958 78.4468 24.0853 78.4468 24.2443C78.4468 24.4668 78.1911 24.5302 77.8079 24.5302C75.9872 24.5302 74.677 24.4349 74.1661 24.4349C73.9106 24.4349 72.569 24.5302 71.1314 24.5302C70.748 24.5302 70.4926 24.4987 70.4926 24.2443C70.4926 24.0855 70.6843 23.958 70.9397 23.958C71.3231 23.958 71.8341 23.9263 72.2178 23.8311C72.9523 23.6403 73.0482 22.9091 73.0801 20.5569L73.3357 4.53692C73.3357 3.99661 73.5272 3.61513 73.815 3.61513C74.1663 3.61513 74.5497 4.02834 75.0287 4.50519C75.3802 4.85494 79.597 9.14588 83.6856 13.1192C85.6025 14.9945 89.34 18.8089 89.7553 19.1902H89.883L89.5951 7.17501C89.5636 5.52217 89.3079 5.04532 88.6374 4.79112C88.2221 4.63229 87.5508 4.63229 87.1676 4.63229C86.8163 4.63229 86.7202 4.50519 86.7202 4.34618C86.7202 4.12371 87.0078 4.0918 87.4231 4.0918C88.8927 4.0918 90.394 4.15544 91.0011 4.15544C91.3205 4.15544 92.3745 4.0918 93.7483 4.0918C94.1316 4.0918 94.3869 4.12352 94.3869 4.34618C94.3869 4.50501 94.2273 4.63229 93.9079 4.63229C93.6201 4.63229 93.3967 4.63229 93.0452 4.72766C92.2785 4.95013 92.0551 5.42698 92.023 6.95273L91.7036 23.9899C91.7036 24.5937 91.48 24.8481 91.2562 24.8481C90.7772 24.8481 90.394 24.562 90.1062 24.2757C88.3491 22.6547 84.8352 19.3173 81.8967 16.4883C78.83 13.5639 75.8591 10.2898 75.3157 9.8131H75.2201L75.5399 20.8431ZM99.3057 11.9114C99.3057 7.81106 99.3057 7.0481 99.2735 6.18976C99.2097 5.26816 98.9542 4.98204 98.0595 4.72766C97.8361 4.66383 97.3571 4.63229 96.9418 4.63229C96.6541 4.63229 96.4626 4.53674 96.4626 4.34618C96.4626 4.15544 96.6861 4.0918 97.1014 4.0918C98.5708 4.0918 100.36 4.15544 101.158 4.15544C102.053 4.15544 108.282 4.18698 108.825 4.15544C109.336 4.12353 109.783 4.02834 110.007 3.99661C110.167 3.96488 110.326 3.86951 110.454 3.86951C110.614 3.86951 110.646 3.99661 110.646 4.12371C110.646 4.31445 110.486 4.63248 110.422 5.87211C110.39 6.15822 110.326 7.33439 110.263 7.65205C110.23 7.77896 110.167 8.09699 109.943 8.09699C109.751 8.09699 109.719 7.96989 109.719 7.74742C109.719 7.55668 109.687 7.07983 109.528 6.7618C109.304 6.28513 109.08 5.90384 107.675 5.77655C107.196 5.71273 103.842 5.64945 103.267 5.64945C103.139 5.64945 103.075 5.74482 103.075 5.90384V12.5787C103.075 12.7377 103.107 12.865 103.267 12.865C103.905 12.865 107.547 12.865 108.186 12.8015C108.857 12.7377 109.272 12.6742 109.528 12.3883C109.751 12.1974 109.847 12.0385 109.975 12.0385C110.103 12.0385 110.199 12.1656 110.199 12.3248C110.199 12.4837 110.134 12.9286 109.975 14.2955C109.911 14.836 109.847 15.9166 109.847 16.1072C109.847 16.3297 109.815 16.7111 109.56 16.7111C109.368 16.7111 109.304 16.6156 109.304 16.4887C109.272 16.2024 109.272 15.853 109.208 15.5031C109.049 14.9627 108.697 14.5495 107.643 14.4543C107.132 14.3905 103.937 14.3271 103.235 14.3271C103.107 14.3271 103.075 14.4543 103.075 14.6134V16.7748C103.075 17.6966 103.043 19.9851 103.075 20.7796C103.139 22.6232 104.001 23.0364 106.877 23.0364C107.611 23.0364 108.793 23.0047 109.528 22.6866C110.231 22.3688 110.55 21.7968 110.742 20.6844C110.806 20.3981 110.87 20.2712 111.061 20.2712C111.285 20.2712 111.317 20.621 111.317 20.9067C111.317 21.5107 111.093 23.3544 110.933 23.8947C110.742 24.5939 110.486 24.5939 109.432 24.5939C107.324 24.5939 105.631 24.5621 104.257 24.4987C102.884 24.4668 101.829 24.4349 100.999 24.4349C100.679 24.4349 100.072 24.4668 99.4018 24.4668C98.7308 24.4987 98.028 24.5302 97.4529 24.5302C97.1016 24.5302 96.9099 24.4349 96.9099 24.2443C96.9099 24.117 97.0058 23.958 97.3573 23.958C97.7724 23.958 98.0918 23.9263 98.3474 23.8624C98.9225 23.7355 99.082 23.2271 99.1778 22.4321C99.3057 21.288 99.3057 19.1583 99.3057 16.6789V11.9114ZM114.83 24.1805C114.382 23.9899 114.286 23.8624 114.286 23.2587C114.286 21.7964 114.414 20.112 114.446 19.6671C114.446 19.2539 114.574 18.9676 114.798 18.9676C115.053 18.9676 115.085 19.2219 115.085 19.4127C115.085 19.7623 115.181 20.3343 115.341 20.8111C115.948 22.8136 118.056 23.4813 119.813 23.4813C122.241 23.4813 123.71 21.9556 123.71 20.0486C123.71 18.8724 123.423 17.6964 120.931 16.2341L119.302 15.2804C115.98 13.3416 114.893 11.5296 114.893 9.14588C114.893 5.84019 118.088 3.7105 121.985 3.7105C123.806 3.7105 125.244 3.96488 125.978 4.15544C126.234 4.2189 126.362 4.31427 126.362 4.50519C126.362 4.85494 126.266 5.61772 126.266 7.74742C126.266 8.31946 126.138 8.60538 125.914 8.60538C125.723 8.60538 125.627 8.44656 125.627 8.12872C125.627 7.87433 125.499 7.04791 124.892 6.34859C124.477 5.84019 123.583 5.07741 121.762 5.07741C119.749 5.07741 117.928 6.12612 117.928 7.9697C117.928 9.17779 118.375 10.1311 120.899 11.5298L122.049 12.1653C125.755 14.1998 126.904 16.2658 126.904 18.7134C126.904 20.7156 126.138 22.3371 124.093 23.7673C122.752 24.721 120.899 24.8794 119.397 24.8794C117.768 24.8796 116.044 24.7212 114.83 24.1805ZM130.738 24.1805C130.291 23.9899 130.195 23.8624 130.195 23.2587C130.195 21.7964 130.322 20.112 130.354 19.6671C130.354 19.2539 130.482 18.9676 130.706 18.9676C130.961 18.9676 130.993 19.2219 130.993 19.4127C130.993 19.7623 131.089 20.3343 131.249 20.8111C131.855 22.8136 133.964 23.4813 135.721 23.4813C138.149 23.4813 139.618 21.9556 139.618 20.0486C139.618 18.8724 139.331 17.6964 136.839 16.2341L135.21 15.2804C131.888 13.3416 130.801 11.5296 130.801 9.14588C130.801 5.84019 133.996 3.7105 137.893 3.7105C139.714 3.7105 141.152 3.96488 141.887 4.15544C142.142 4.2189 142.269 4.31427 142.269 4.50519C142.269 4.85494 142.174 5.61772 142.174 7.74742C142.174 8.31946 142.046 8.60538 141.822 8.60538C141.63 8.60538 141.535 8.44656 141.535 8.12872C141.535 7.87433 141.407 7.04791 140.8 6.34859C140.385 5.84019 139.49 5.07741 137.669 5.07741C135.657 5.07741 133.836 6.12612 133.836 7.9697C133.836 9.17779 134.283 10.1311 136.807 11.5298L137.957 12.1653C141.662 14.1998 142.812 16.2658 142.812 18.7134C142.812 20.7156 142.045 22.3371 140.001 23.7673C138.659 24.721 136.807 24.8794 135.305 24.8794C133.676 24.8796 131.951 24.7212 130.738 24.1805ZM4.62488 43.6715C4.62488 38.8399 4.62488 37.95 4.56092 36.933C4.49696 35.852 4.17753 35.3119 3.4749 35.1529C3.12339 35.0573 2.70812 35.0256 2.32491 35.0256C2.0053 35.0256 1.81379 34.9621 1.81379 34.7081C1.81379 34.5172 2.06926 34.4536 2.58038 34.4536C3.79433 34.4536 5.80675 34.5491 6.73315 34.5491C7.53182 34.5491 9.4165 34.4536 10.6303 34.4536C11.0455 34.4536 11.3012 34.5172 11.3012 34.7081C11.3012 34.9621 11.1095 35.0256 10.7901 35.0256C10.4705 35.0256 10.215 35.0575 9.83159 35.1215C8.96915 35.28 8.7135 35.8207 8.64972 36.9332C8.58576 37.9504 8.58576 38.84 8.58576 43.6717V49.2657C8.58576 52.3489 8.58576 54.8603 8.71331 56.2268C8.80935 57.0849 9.03293 57.657 9.9914 57.7843C10.4386 57.8477 11.1414 57.9112 11.6204 57.9112C11.9719 57.9112 12.1316 58.0067 12.1316 58.1656C12.1316 58.388 11.8761 58.4834 11.5248 58.4834C9.41632 58.4834 7.40389 58.388 6.54127 58.388C5.80656 58.388 3.79414 58.4834 2.51624 58.4834C2.10115 58.4834 1.87738 58.388 1.87738 58.1656C1.87738 58.0067 2.00511 57.9112 2.3885 57.9112C2.86774 57.9112 3.25113 57.8475 3.53867 57.7843C4.17734 57.657 4.36904 57.1167 4.46507 56.1949C4.62469 54.8603 4.62469 52.3487 4.62469 49.2657V43.6715H4.62488ZM20.8843 54.7964C20.9482 56.8942 21.2995 57.5299 21.8427 57.7208C22.3218 57.8796 22.865 57.9114 23.3121 57.9114C23.6316 57.9114 23.7914 58.0385 23.7914 58.1977C23.7914 58.4201 23.5359 58.4836 23.1525 58.4836C21.3318 58.4836 20.022 58.3882 19.5107 58.3882C19.2552 58.3882 17.9135 58.4836 16.476 58.4836C16.0926 58.4836 15.8372 58.4517 15.8372 58.1977C15.8372 58.0387 16.0289 57.9114 16.2843 57.9114C16.6677 57.9114 17.1788 57.8796 17.5622 57.7845C18.2969 57.5937 18.3928 56.8628 18.4247 54.5105L18.6803 38.4905C18.6803 37.9502 18.8718 37.5689 19.1594 37.5689C19.5109 37.5689 19.8941 37.9819 20.3733 38.4586C20.7248 38.8083 24.9415 43.0993 29.0304 47.0725C30.9471 48.9478 34.6846 52.7621 35.0999 53.1436H35.2274L34.9401 41.1284C34.908 39.4755 34.6525 38.9989 33.9816 38.7443C33.5663 38.5858 32.8956 38.5858 32.512 38.5858C32.1607 38.5858 32.0648 38.4586 32.0648 38.2995C32.0648 38.0771 32.3526 38.0452 32.7677 38.0452C34.2373 38.0452 35.7386 38.109 36.3455 38.109C36.6651 38.109 37.7191 38.0452 39.093 38.0452C39.4762 38.0452 39.7317 38.0771 39.7317 38.2995C39.7317 38.4584 39.5719 38.5858 39.2525 38.5858C38.9647 38.5858 38.7413 38.5858 38.3898 38.681C37.6232 38.9037 37.3997 39.3805 37.3676 40.9061L37.048 57.9433C37.048 58.5471 36.8246 58.8014 36.601 58.8014C36.1218 58.8014 35.7386 58.5155 35.4508 58.229C33.6941 56.6081 30.18 53.2707 27.2411 50.4417C24.1746 47.5175 21.2037 44.2433 20.6605 43.7667H20.5646L20.8843 54.7964ZM45.7997 58.134C45.3528 57.9433 45.2567 57.8158 45.2567 57.2121C45.2567 55.7499 45.3845 54.0656 45.4164 53.6204C45.4164 53.2074 45.5441 52.9211 45.7679 52.9211C46.0233 52.9211 46.0554 53.1753 46.0554 53.3661C46.0554 53.7158 46.1512 54.288 46.3109 54.7647C46.9177 56.7671 49.0261 57.4345 50.7832 57.4345C53.2109 57.4345 54.6804 55.909 54.6804 54.0017C54.6804 52.8259 54.3928 51.6498 51.9013 50.1877L50.2719 49.2341C46.9497 47.2948 45.8637 45.4833 45.8637 43.0992C45.8637 39.7936 49.058 37.6639 52.9553 37.6639C54.7762 37.6639 56.2137 37.9181 56.9484 38.109C57.2041 38.1726 57.3318 38.2678 57.3318 38.4586C57.3318 38.8083 57.2358 39.5709 57.2358 41.7008C57.2358 42.273 57.1082 42.5588 56.8843 42.5588C56.6928 42.5588 56.5967 42.3999 56.5967 42.0821C56.5967 41.8279 56.4692 41.0017 55.862 40.3021C55.4468 39.7936 54.5524 39.0308 52.7315 39.0308C50.7191 39.0308 48.8982 40.0797 48.8982 41.9233C48.8982 43.1312 49.3454 44.0849 51.8687 45.4833L53.0189 46.119C56.7245 48.1531 57.8743 50.2194 57.8743 52.6667C57.8743 54.6693 57.1077 56.2904 55.0634 57.7206C53.7217 58.6741 51.8687 58.8332 50.3674 58.8332C48.7391 58.8333 47.0139 58.6743 45.7997 58.134ZM65.2857 45.8644C65.2857 41.7641 65.2857 41.0017 65.254 40.1431C65.19 39.2215 64.9025 38.9035 64.2955 38.7128C63.9761 38.6174 63.6246 38.5858 63.2732 38.5858C62.9855 38.5858 62.8259 38.522 62.8259 38.2678C62.8259 38.109 63.0495 38.0452 63.4968 38.0452C64.5511 38.0452 66.4675 38.109 67.2662 38.109C67.9692 38.109 69.7898 38.0452 70.8761 38.0452C71.2275 38.0452 71.4512 38.109 71.4512 38.2678C71.4512 38.522 71.2916 38.5858 71.0039 38.5858C70.7165 38.5858 70.4929 38.6176 70.1735 38.681C69.4067 38.8083 69.1832 39.1898 69.1192 40.1433C69.0554 41.0017 69.0554 41.7642 69.0554 45.8646V50.6328C69.0554 53.2393 69.0554 55.4007 69.183 56.545C69.2788 57.2762 69.4707 57.6893 70.3011 57.8162C70.6843 57.88 71.3233 57.9117 71.7386 57.9117C72.058 57.9117 72.1856 58.0706 72.1856 58.198C72.1856 58.3886 71.9622 58.484 71.6426 58.484C69.7898 58.484 67.8732 58.3886 67.1064 58.3886C66.4675 58.3886 64.551 58.484 63.4329 58.484C63.0814 58.484 62.8897 58.3886 62.8897 58.198C62.8897 58.0708 62.9855 57.9117 63.337 57.9117C63.7523 57.9117 64.0715 57.88 64.3272 57.8162C64.9023 57.6893 65.0621 57.3078 65.1578 56.5133C65.2853 55.4009 65.2853 53.2395 65.2853 50.633V45.8644H65.2857ZM83.398 48.8523C83.398 51.7132 83.4299 53.7793 83.462 54.3196C83.4937 54.9872 83.5582 55.9407 83.7814 56.2268C84.1329 56.7354 85.2508 57.3074 87.455 57.3074C90.0104 57.3074 91.8953 56.8627 93.5884 55.4638C95.4092 53.97 95.9844 51.5542 95.9844 48.7573C95.9844 45.3245 94.6107 43.0993 93.3649 42.0188C90.7772 39.7301 87.7106 39.4442 85.5065 39.4442C84.931 39.4442 84.0048 39.5076 83.7812 39.6347C83.5258 39.7301 83.4297 39.8574 83.4297 40.175C83.3979 41.097 83.3979 43.3221 83.3979 45.4514V48.8523H83.398ZM79.6287 45.8644C79.6287 41.7641 79.6287 41.0017 79.5964 40.1431C79.5324 39.2215 79.277 38.9352 78.3826 38.6808C78.1589 38.6174 77.6796 38.5857 77.2645 38.5857C76.977 38.5857 76.7855 38.4901 76.7855 38.2994C76.7855 38.1088 77.0091 38.045 77.4244 38.045C78.894 38.045 80.6826 38.1088 81.4815 38.1088C82.3437 38.1088 84.3565 38.045 86.0497 38.045C89.5634 38.045 94.2911 38.045 97.3578 41.1282C98.7635 42.527 100.009 44.7836 100.009 47.9943C100.009 51.3956 98.5399 53.97 96.9425 55.5275C95.6648 56.7987 92.6937 58.7059 87.5187 58.7059C86.4965 58.7059 85.2827 58.6105 84.1648 58.5469C83.0467 58.4513 82.0243 58.388 81.3216 58.388C81.002 58.388 80.3951 58.42 79.7245 58.42C79.0538 58.4515 78.3508 58.4834 77.7755 58.4834C77.4244 58.4834 77.2327 58.388 77.2327 58.1975C77.2327 58.0702 77.3285 57.9112 77.6796 57.9112C78.0949 57.9112 78.4145 57.8795 78.6702 57.8156C79.2453 57.6887 79.4049 57.1803 79.5007 56.3854C79.6285 55.2414 79.6285 53.1117 79.6285 50.6322V45.8644H79.6287ZM107.196 45.8644C107.196 41.7641 107.196 41.0017 107.164 40.1431C107.1 39.2215 106.844 38.9352 105.95 38.6808C105.726 38.6174 105.247 38.5857 104.832 38.5857C104.545 38.5857 104.353 38.4901 104.353 38.2994C104.353 38.1088 104.576 38.045 104.991 38.045C106.461 38.045 108.25 38.1088 109.049 38.1088C109.943 38.1088 116.172 38.1404 116.715 38.1088C117.227 38.0769 117.674 37.9817 117.897 37.95C118.057 37.9179 118.217 37.8227 118.344 37.8227C118.504 37.8227 118.536 37.95 118.536 38.0771C118.536 38.2678 118.377 38.5858 118.312 39.8255C118.281 40.1114 118.216 41.2876 118.153 41.6052C118.121 41.7323 118.057 42.0504 117.833 42.0504C117.642 42.0504 117.61 41.9233 117.61 41.7006C117.61 41.51 117.578 41.0332 117.418 40.7152C117.194 40.2385 116.971 39.8572 115.565 39.7297C115.086 39.6661 111.732 39.6028 111.157 39.6028C111.029 39.6028 110.965 39.698 110.965 39.8572V46.5322C110.965 46.691 110.997 46.8181 111.157 46.8181C111.796 46.8181 115.438 46.8181 116.077 46.7547C116.747 46.691 117.162 46.6276 117.418 46.3417C117.642 46.1509 117.738 45.9919 117.866 45.9919C117.993 45.9919 118.089 46.119 118.089 46.2778C118.089 46.4368 118.025 46.8816 117.866 48.2487C117.801 48.7892 117.738 49.8698 117.738 50.0606C117.738 50.2828 117.706 50.6645 117.45 50.6645C117.258 50.6645 117.194 50.5691 117.194 50.4418C117.162 50.1559 117.162 49.8064 117.099 49.4566C116.939 48.9161 116.587 48.5029 115.533 48.4075C115.022 48.3439 111.828 48.2804 111.125 48.2804C110.997 48.2804 110.965 48.4075 110.965 48.5665V50.728C110.965 51.6498 110.933 53.9383 110.965 54.733C111.03 56.5764 111.892 56.9896 114.767 56.9896C115.501 56.9896 116.684 56.9579 117.418 56.6398C118.121 56.3224 118.441 55.75 118.632 54.6376C118.696 54.3515 118.76 54.2246 118.952 54.2246C119.175 54.2246 119.207 54.5741 119.207 54.8603C119.207 55.4637 118.984 57.3074 118.824 57.8475C118.632 58.5469 118.377 58.5469 117.323 58.5469C115.214 58.5469 113.521 58.5153 112.148 58.4513C110.774 58.4198 109.72 58.3879 108.889 58.3879C108.57 58.3879 107.963 58.4198 107.292 58.4198C106.621 58.4513 105.919 58.4832 105.343 58.4832C104.992 58.4832 104.801 58.3879 104.801 58.1973C104.801 58.07 104.896 57.911 105.247 57.911C105.663 57.911 105.982 57.8793 106.238 57.8154C106.813 57.6885 106.972 57.1801 107.068 56.3853C107.196 55.2414 107.196 53.1117 107.196 50.6322L107.196 45.8644ZM129.876 47.9626C129.876 48.2485 129.94 48.3439 130.131 48.4393C130.738 48.6302 131.569 48.6936 132.272 48.6936C133.39 48.6936 133.773 48.5983 134.252 48.2485C135.115 47.6447 136.073 46.4686 136.073 44.2435C136.073 40.4292 133.454 39.444 131.792 39.444C131.09 39.444 130.419 39.4755 130.131 39.5394C129.94 39.603 129.876 39.698 129.876 39.9207V47.9626ZM126.298 45.8644C126.298 41.7641 126.298 41.0017 126.266 40.1431C126.202 39.2215 125.947 38.9352 125.052 38.6808C124.828 38.6174 124.349 38.5857 123.934 38.5857C123.647 38.5857 123.455 38.4901 123.455 38.2994C123.455 38.1088 123.679 38.045 124.094 38.045C125.563 38.045 127.352 38.1088 127.927 38.1088C128.885 38.1088 131.441 38.045 132.304 38.045C134.093 38.045 136.137 38.2042 137.638 39.1894C138.437 39.7297 139.619 41.0967 139.619 42.9083C139.619 44.9109 138.469 46.6909 135.722 48.884C138.213 51.9353 140.194 54.3832 141.887 56.0676C143.452 57.6249 144.443 57.7522 144.89 57.8474C145.177 57.911 145.337 57.911 145.561 57.911C145.784 57.911 145.912 58.0698 145.912 58.1973C145.912 58.4198 145.72 58.4832 145.369 58.4832H142.686C141.12 58.4832 140.354 58.3244 139.619 57.9429C138.405 57.3391 137.351 56.0676 135.786 53.9698C134.667 52.5075 133.486 50.6957 133.134 50.2825C132.974 50.1236 132.814 50.0919 132.623 50.0919L130.099 50.0285C129.972 50.0285 129.876 50.0919 129.876 50.2509V50.6322C129.876 53.1432 129.908 55.2412 130.035 56.3854C130.131 57.1803 130.259 57.6887 131.121 57.8156C131.537 57.8795 132.144 57.9112 132.495 57.9112C132.719 57.9112 132.847 58.07 132.847 58.1975C132.847 58.388 132.623 58.4834 132.272 58.4834C130.642 58.4834 128.31 58.388 127.895 58.388C127.352 58.388 125.563 58.4834 124.445 58.4834C124.094 58.4834 123.902 58.388 123.902 58.1975C123.902 58.0702 123.998 57.9112 124.349 57.9112C124.764 57.9112 125.084 57.8795 125.339 57.8156C125.915 57.6887 126.074 57.1803 126.17 56.3854C126.298 55.2414 126.298 53.1117 126.298 50.6322V45.8644" fill="black"/>
</g>
<defs>
<clipPath id="clip0">
<rect width="145.833" height="58.3333" fill="white" transform="translate(0.0835266 0.499512)"/>
</clipPath>
</defs>
</svg>
