<svg width="147" height="31" viewBox="0 0 147 31" fill="none" xmlns="http://www.w3.org/2000/svg">
<g opacity="0.3" clip-path="url(#clip0)">
<path d="M17.9564 0.0554199C21.0601 0.568621 23.9785 2.29484 25.8314 4.86085C26.202 5.37405 26.5726 5.9339 26.8505 6.54041C25.6461 7.3802 24.4417 8.17333 23.2836 9.01311C23.0983 9.15307 22.9594 9.24638 22.7278 9.33969C22.1719 7.94005 21.1991 6.68038 19.9483 5.84059C19.0219 5.23408 17.9564 4.81419 16.891 4.58092C17.2153 3.08797 17.5858 1.59502 17.9564 0.0554199ZM6.74616 1.4084C8.18218 0.941858 9.84983 1.68833 10.452 3.04132C10.9616 4.06772 10.8226 5.4207 10.1278 6.30714C9.24762 7.42685 7.57998 7.84674 6.32924 7.19358C5.49542 6.77369 4.84689 5.98056 4.6616 5.04746C4.52263 4.34765 4.56895 3.60117 4.93954 2.94801C5.31013 2.20153 6.00498 1.68833 6.74616 1.4084ZM0.353516 17.3176C2.06748 17.271 3.73513 17.3176 5.4491 17.3176C5.77336 19.1838 6.56086 20.9567 7.8116 22.3563C8.78439 23.476 10.0351 24.2692 11.3785 24.7824C13.2314 25.4822 15.2697 25.5755 17.2153 25.109C18.9756 24.6891 20.5506 23.7093 21.7086 22.263C22.4961 21.2833 23.0983 20.1636 23.4226 18.9505C24.9513 19.3704 26.3873 19.9303 27.916 20.3968C27.8697 20.8634 27.6844 21.3299 27.4991 21.7965C26.48 24.4558 24.5807 26.7419 22.1256 28.1882C20.5506 29.1213 18.7439 29.7278 16.9373 29.961C13.3704 30.4276 9.61821 29.6811 6.60719 27.675C4.98586 26.6019 3.54984 25.1556 2.53072 23.476C1.32631 21.7032 0.631457 19.5571 0.353516 17.3176Z" fill="black"/>
<path d="M31.9945 13.118C34.1717 9.5722 38.9893 7.93929 42.8342 9.5722C44.0386 10.0387 44.8724 11.0185 45.5673 12.0915C45.521 11.2518 45.521 10.412 45.521 9.52554H50.1533C50.246 16.1972 49.968 22.8688 50.3386 29.5404H45.7989C45.7526 28.6073 45.7063 27.7209 45.6599 26.7878C43.2974 31.0333 37.1364 30.8934 33.8011 28.0008C29.6783 24.3617 29.1224 17.6435 31.9945 13.118ZM39.0357 13.2113C34.7739 14.2843 34.0327 20.0695 35.9783 23.4286C37.4607 26.1812 41.6298 26.7411 43.7607 24.455C45.8916 22.2156 46.0768 18.5765 44.8261 15.8239C43.8533 13.6778 41.2592 12.6514 39.0357 13.2113ZM73.8247 10.9718C77.2063 8.17256 82.4409 8.21921 85.9151 10.8785C88.8335 13.2113 89.621 17.2236 89.3431 20.7693C84.4791 20.816 79.5688 20.7693 74.7048 20.7693C74.9364 22.7288 76.0019 24.735 77.9011 25.4814C80.6342 26.8344 84.2475 25.5281 85.2203 22.5422C86.5637 22.9621 87.8607 23.382 89.2041 23.7552C88.4629 25.808 87.1195 27.7209 85.174 28.7939C81.3754 30.9867 76.0945 30.3335 72.9909 27.161C68.7291 22.8688 69.0533 14.7975 73.8247 10.9718ZM76.0019 14.5642C75.307 15.3107 75.0754 16.3371 74.7975 17.2702C78.0864 17.2702 81.4217 17.3635 84.7107 17.1769C84.3865 15.9639 84.0159 14.6576 82.9504 13.8644C80.9585 12.3715 77.6695 12.5581 76.0019 14.5642ZM96.4306 10.7852C99.6269 8.31252 104.306 8.31252 107.687 10.412C111.023 12.6048 112.134 16.9903 111.671 20.7693C106.807 20.7227 101.943 20.7693 97.0791 20.7693C97.3107 21.9357 97.5887 23.1487 98.3762 24.0351C100.136 26.2279 103.657 26.6478 105.881 24.9682C106.714 24.3617 107.085 23.3353 107.687 22.5888C108.984 22.9154 110.281 23.382 111.578 23.8019C110.837 25.9013 109.448 27.8142 107.456 28.8872C103.703 30.94 98.6078 30.3802 95.5504 27.3476C91.0107 23.0087 91.3813 14.5642 96.4306 10.7852ZM98.2835 14.6109C97.635 15.3574 97.4034 16.3371 97.1254 17.2702H106.992C106.761 16.1038 106.436 14.8442 105.464 14.0044C103.472 12.3248 99.9975 12.4648 98.2835 14.6109ZM120.75 11.9516C123.391 7.84598 130.386 7.89263 132.609 12.3715C134.74 8.68576 140.067 7.84598 143.403 10.3187C145.209 11.7183 146.043 14.051 146.043 16.2905C146.089 20.676 146.043 25.0615 146.043 29.4471H141.457V17.6435C141.457 16.4304 141.272 15.1241 140.438 14.2377C138.678 12.4648 135.296 12.9313 134.138 15.1708C133.536 16.1972 133.536 17.4568 133.536 18.5765V29.4471H128.903C128.857 25.2015 128.95 20.9559 128.857 16.757C128.857 14.8908 127.328 13.1646 125.429 13.2113C123.206 12.8847 121.121 14.7042 120.982 16.897C120.843 21.0959 120.982 25.2948 120.936 29.4471H116.257V9.43224H120.797C120.797 10.3187 120.797 11.1585 120.75 11.9516ZM56.1754 9.47889H60.8077C60.8077 10.5053 60.7614 11.5783 60.7614 12.6047C62.0585 9.99209 65.0695 8.91903 67.8026 9.29227V14.191C66.1813 14.1444 64.3747 13.9577 62.985 14.9841C61.5026 15.9639 60.993 17.8767 60.9467 19.5563C60.9004 22.8688 60.9467 26.1812 60.9004 29.4937H56.1754V9.47889Z" fill="black"/>
</g>
<defs>
<clipPath id="clip0">
<rect width="145.833" height="30.1389" fill="white" transform="translate(0.305786 0.0554199)"/>
</clipPath>
</defs>
</svg>
