<svg width="45" height="45" viewBox="0 0 45 45" fill="none" xmlns="http://www.w3.org/2000/svg">
<circle cx="22.4586" cy="22.5415" r="21.875" fill="#FF5722"/>
<path d="M34.9869 26.5631H33.7937V11.6483C33.7937 11.3188 33.5266 11.0517 33.1971 11.0517H24.2483V8.06876C24.2483 7.73926 23.9811 7.47217 23.6517 7.47217H21.2653C20.9359 7.47217 20.6687 7.73926 20.6687 8.06876V11.0517H11.7199C11.3904 11.0517 11.1233 11.3188 11.1233 11.6483V26.5631H9.9301C9.60066 26.5631 9.33351 26.8302 9.33351 27.1597V29.546C9.33351 29.8755 9.60066 30.1426 9.9301 30.1426H16.7593L13.5632 37.1742C13.4792 37.3588 13.4949 37.5735 13.6046 37.744C13.7145 37.9145 13.9034 38.0176 14.1062 38.0176H17.0892C17.3232 38.0176 17.5355 37.8809 17.6323 37.6679L19.1547 34.3188H25.7624L27.2847 37.6679C27.3815 37.8809 27.5938 38.0176 27.8278 38.0176H30.8108C31.0136 38.0176 31.2026 37.9145 31.3124 37.744C31.4222 37.5735 31.4379 37.3588 31.3539 37.1742L28.1577 30.1426H34.9869C35.3164 30.1426 35.5835 29.8755 35.5835 29.546V27.1597C35.5835 26.8302 35.3164 26.5631 34.9869 26.5631ZM21.8619 8.66535H23.0551V11.0517H21.8619V8.66535ZM12.3165 12.2449H32.6006V26.5631H20.6687V24.7733C20.6687 24.4438 20.4016 24.1767 20.0721 24.1767H15.2994C14.97 24.1767 14.7028 24.4438 14.7028 24.7733V26.5631H12.3165V12.2449ZM15.896 26.5631V25.3699H19.4756V26.5631H15.896ZM16.705 36.8244H15.0328L18.07 30.1426H19.7423L16.705 36.8244ZM19.697 33.1256L21.0529 30.1426H23.8641L25.22 33.1256H19.697ZM29.8843 36.8244H28.212L25.1748 30.1426H26.8471L29.8843 36.8244ZM34.3903 28.9494H10.5267V27.7563H34.3903V28.9494Z" fill="white"/>
<path d="M15.2364 22.0571L15.6681 21.1938H18.5102L18.9419 22.0571C19.0464 22.2662 19.257 22.3871 19.4759 22.3871C19.5656 22.3871 19.6566 22.3668 19.7422 22.3239C20.037 22.1766 20.1564 21.8182 20.0091 21.5235L17.6227 16.7508C17.5217 16.5487 17.3151 16.421 17.0891 16.421C16.8632 16.421 16.6566 16.5487 16.5556 16.7508L14.1692 21.5236C14.0218 21.8183 14.1413 22.1766 14.436 22.324C14.7306 22.4712 15.0891 22.3519 15.2364 22.0571ZM17.0891 18.3517L17.9136 20.0006H16.2647L17.0891 18.3517Z" fill="white"/>
<path d="M21.8619 22.3869H23.6517C24.6386 22.3869 25.4415 21.584 25.4415 20.5972C25.4415 20.1392 25.2686 19.7209 24.9847 19.404C25.2686 19.0871 25.4415 18.6687 25.4415 18.2108C25.4415 17.2239 24.6386 16.421 23.6517 16.421H21.8619C21.5325 16.421 21.2653 16.6881 21.2653 17.0176V21.7904C21.2653 22.1198 21.5325 22.3869 21.8619 22.3869ZM22.4585 17.6142H23.6517C23.9807 17.6142 24.2483 17.8818 24.2483 18.2108C24.2483 18.5398 23.9807 18.8074 23.6517 18.8074H22.4585V17.6142ZM22.4585 20.0006H23.6517C23.9807 20.0006 24.2483 20.2682 24.2483 20.5972C24.2483 20.9261 23.9807 21.1938 23.6517 21.1938H22.4585V20.0006Z" fill="white"/>
<path d="M29.6176 22.3869H30.2142C30.5436 22.3869 30.8108 22.1198 30.8108 21.7904C30.8108 21.4609 30.5436 21.1938 30.2142 21.1938H29.6176C28.6307 21.1938 27.8278 20.3909 27.8278 19.404C27.8278 18.4171 28.6307 17.6142 29.6176 17.6142H30.2142C30.5436 17.6142 30.8108 17.3471 30.8108 17.0176C30.8108 16.6881 30.5436 16.421 30.2142 16.421H29.6176C27.9728 16.421 26.6346 17.7592 26.6346 19.404C26.6346 21.0488 27.9728 22.3869 29.6176 22.3869Z" fill="white"/>
</svg>
