<svg width="45" height="45" viewBox="0 0 45 45" fill="none" xmlns="http://www.w3.org/2000/svg">
<circle cx="22.5146" cy="22.5415" r="21.875" fill="#FF5722"/>
<path d="M32.1863 15.2695L26.5176 9.92356C26.1715 9.59712 25.7114 9.41736 25.222 9.41736H14.1385C13.1282 9.41736 12.3063 10.1925 12.3063 11.1453V32.9672C12.3063 33.92 13.1282 34.6951 14.1385 34.6951H30.8907C31.901 34.6951 32.7229 33.92 32.7229 32.9672V16.4914C32.7229 16.0299 32.5324 15.596 32.1863 15.2695ZM30.0419 15.3418H26.7026C26.5583 15.3418 26.4409 15.2311 26.4409 15.095V11.9458L30.0419 15.3418ZM30.8907 33.214H14.1385C13.9942 33.214 13.8768 33.1033 13.8768 32.9672V11.1453C13.8768 11.0092 13.9942 10.8985 14.1385 10.8985H24.8704V15.095C24.8704 16.0478 25.6923 16.823 26.7026 16.823H31.1524V32.9672C31.1524 33.1033 31.035 33.214 30.8907 33.214Z" fill="white"/>
<path d="M23.3575 20.7232H28.3606C28.7943 20.7232 29.1459 20.3917 29.1459 19.9827C29.1459 19.5737 28.7943 19.2421 28.3606 19.2421H23.3575C22.9238 19.2421 22.5722 19.5737 22.5722 19.9827C22.5722 20.3917 22.9237 20.7232 23.3575 20.7232Z" fill="white"/>
<path d="M23.3575 25.6603H28.3606C28.7943 25.6603 29.1459 25.3287 29.1459 24.9197C29.1459 24.5108 28.7943 24.1792 28.3606 24.1792H23.3575C22.9238 24.1792 22.5722 24.5108 22.5722 24.9197C22.5722 25.3287 22.9237 25.6603 23.3575 25.6603Z" fill="white"/>
<path d="M28.3831 29.1163H23.3575C22.9238 29.1163 22.5722 29.4478 22.5722 29.8568C22.5722 30.2658 22.9238 30.5974 23.3575 30.5974H28.3831C28.8168 30.5974 29.1683 30.2658 29.1683 29.8568C29.1683 29.4478 28.8168 29.1163 28.3831 29.1163Z" fill="white"/>
<path d="M19.4393 17.9662L17.6284 19.674L17.2014 19.2713C16.8948 18.9821 16.3976 18.9821 16.0909 19.2713C15.7842 19.5605 15.7842 20.0294 16.0909 20.3186L17.0732 21.245C17.2265 21.3896 17.4275 21.4619 17.6284 21.4619C17.8293 21.4619 18.0304 21.3897 18.1837 21.245L20.5498 19.0135C20.8565 18.7243 20.8565 18.2555 20.5498 17.9662C20.2432 17.677 19.746 17.677 19.4393 17.9662Z" fill="white"/>
<path d="M19.4393 23.2803L17.6284 24.9882L17.2014 24.5855C16.8948 24.2963 16.3976 24.2962 16.0909 24.5855C15.7842 24.8747 15.7842 25.3435 16.0909 25.6327L17.0732 26.5591C17.2265 26.7037 17.4275 26.776 17.6284 26.776C17.8293 26.776 18.0304 26.7037 18.1837 26.559L20.5498 24.3276C20.8565 24.0384 20.8565 23.5695 20.5498 23.2803C20.2432 22.9911 19.746 22.9911 19.4393 23.2803Z" fill="white"/>
<path d="M19.4393 28.2174L17.6284 29.9252L17.2014 29.5225C16.8948 29.2334 16.3976 29.2333 16.0909 29.5225C15.7842 29.8117 15.7842 30.2806 16.0909 30.5698L17.0732 31.4962C17.2265 31.6408 17.4275 31.713 17.6284 31.713C17.8293 31.713 18.0304 31.6408 18.1837 31.4961L20.5498 29.2647C20.8565 28.9754 20.8565 28.5066 20.5498 28.2174C20.2432 27.9282 19.746 27.9282 19.4393 28.2174Z" fill="white"/>
</svg>
