<svg width="57" height="56" viewBox="0 0 57 56" fill="none" xmlns="http://www.w3.org/2000/svg">
<circle cx="28.6579" cy="27.8465" r="27.7083" fill="white" fill-opacity="0.15"/>
<circle cx="28.6583" cy="27.8468" r="21.875" fill="#FF5722"/>
<g clip-path="url(#clip0)">
<path d="M20.7853 14.7216C18.614 14.722 16.8479 16.4882 16.8479 18.6594C16.8479 20.8307 18.614 22.5964 20.7853 22.5964C22.9565 22.5964 24.7227 20.8302 24.7227 18.659C24.7227 16.4877 22.9565 14.7216 20.7853 14.7216ZM20.7853 21.2843C19.3355 21.2843 18.1604 20.1092 18.1604 18.6594C18.1604 17.2096 19.3355 16.0345 20.7853 16.0345C22.2351 16.0345 23.4102 17.2096 23.4102 18.6594C23.4102 20.1092 22.2351 21.2843 20.7853 21.2843Z" fill="white"/>
<path d="M40.4707 21.2842H27.3461C26.6211 21.2842 26.0336 21.8717 26.0336 22.5966V23.5989L27.3461 24.2552V22.5966H40.4707V33.0959H27.3461V31.5358L26.0336 31.2081V33.0959C26.0336 33.8208 26.6211 34.4083 27.3461 34.4083H32.7499L29.4084 39.9771C29.2211 40.2873 29.3226 40.6911 29.6341 40.877C29.9417 41.0656 30.3468 40.9641 30.534 40.6513L33.2521 36.1207V40.314C33.2521 40.6767 33.5457 40.9702 33.9084 40.9702C34.271 40.9702 34.5646 40.6767 34.5646 40.314V36.1207L37.2831 40.6509C37.4061 40.8561 37.6239 40.9698 37.8458 40.9698C37.9613 40.9698 38.0777 40.9405 38.1831 40.8762C38.4946 40.6903 38.5956 40.2865 38.4088 39.9763L35.0672 34.4075H40.4706C41.1956 34.4075 41.7831 33.82 41.7831 33.0951V22.5966C41.7832 21.8717 41.1956 21.2842 40.4707 21.2842Z" fill="white"/>
<path d="M38.4763 25.0406C38.3774 24.6919 38.0147 24.4867 37.6652 24.5908L29.5668 26.9047C29.4723 26.8133 29.3664 26.7332 29.2457 26.6724L23.9959 24.0475C23.8135 23.9565 23.6126 23.9088 23.4087 23.9088H18.1589C17.5246 23.9088 16.9812 24.3625 16.8675 24.9864L15.555 32.2044C15.4854 32.5873 15.5891 32.9814 15.8385 33.2802C16.0879 33.579 16.4571 33.7518 16.8465 33.7518H17.6851L18.1633 39.7616C18.2175 40.444 18.7867 40.9699 19.4714 40.9699H22.0963C22.7652 40.9699 23.327 40.4672 23.4009 39.8027L24.5476 29.4836L28.3406 30.4317C28.4456 30.4579 28.5523 30.4706 28.6586 30.4706C28.9483 30.4706 29.233 30.3748 29.4663 30.1928C29.7847 29.9443 29.9711 29.5623 29.9711 29.1581V28.1532L38.0265 25.8516C38.3752 25.7528 38.5764 25.3888 38.4763 25.0406ZM28.6586 29.1586L23.4087 27.8461L22.0963 39.6579H19.4714L18.8974 32.4394H16.8464L18.1589 25.2213H20.1276V29.2138C20.1276 29.5764 20.4211 29.87 20.7838 29.87C21.1465 29.87 21.44 29.5764 21.44 29.2138V25.2212H23.4087L28.6586 27.8461V29.1586Z" fill="white"/>
</g>
<defs>
<clipPath id="clip0">
<rect width="26.25" height="26.25" fill="white" transform="translate(15.5332 14.7217)"/>
</clipPath>
</defs>
</svg>
