<svg width="147" height="49" viewBox="0 0 147 49" fill="none" xmlns="http://www.w3.org/2000/svg">
<g opacity="0.3" clip-path="url(#clip0)">
<path d="M18.8489 0.365967H20.1457C24.6479 0.465921 29.0768 2.31507 32.2577 5.58855C31.0832 6.81299 29.8842 7.98744 28.7342 9.21188C26.948 7.56264 24.7947 6.28823 22.4457 5.83844C18.9712 5.08878 15.2275 5.76347 12.3157 7.78753C9.13478 9.91155 6.98154 13.5099 6.51663 17.3581C6.00279 21.1564 7.05494 25.1545 9.47734 28.1031C11.8019 30.9768 15.3498 32.776 19.0201 32.9009C22.4457 33.1008 26.0182 32.0263 28.514 29.5775C30.4715 27.8533 31.3768 25.2295 31.6704 22.6806C27.6086 22.6806 23.5468 22.7056 19.485 22.6806V17.533H36.5886C37.4695 23.0555 36.1971 29.2776 32.0864 33.2258C29.3459 36.0245 25.5533 37.6737 21.6872 37.9986C17.9435 38.3734 14.0775 37.6487 10.7497 35.7996C6.76132 33.6256 3.58039 29.9523 2.01439 25.6293C0.546273 21.6561 0.521804 17.1582 1.89205 13.1601C3.13995 9.51174 5.53789 6.28823 8.62094 4.03927C11.5817 1.8153 15.1785 0.590863 18.8489 0.365967Z" fill="black"/>
<path d="M116.969 1.66504H122.205V37.3485C120.468 37.3485 118.706 37.3735 116.969 37.3236C116.993 25.454 116.969 13.5595 116.969 1.66504Z" fill="black"/>
<path d="M48.2362 14.0342C51.4661 13.4095 54.9651 14.1091 57.6322 16.0832C60.0546 17.8324 61.7429 20.5811 62.2568 23.5797C62.9174 27.0531 62.0855 30.8514 59.8833 33.6001C57.5098 36.6737 53.6193 38.3229 49.8267 38.073C46.3521 37.8731 42.9754 36.099 40.9201 33.2003C38.5955 30.0018 38.0328 25.6038 39.3051 21.8555C40.5775 17.8324 44.1744 14.7588 48.2362 14.0342ZM48.9703 18.782C47.649 19.1318 46.4255 19.9064 45.5447 21.0059C43.1712 23.9046 43.318 28.6274 45.9362 31.3262C47.4287 32.8754 49.6799 33.6001 51.7597 33.1753C53.6927 32.8255 55.3811 31.5011 56.3109 29.7519C57.9258 26.7783 57.4609 22.6802 54.9896 20.3562C53.3991 18.8569 51.0746 18.2322 48.9703 18.782Z" fill="black"/>
<path d="M74.173 14.0343C77.8678 13.3096 81.9051 14.3591 84.6701 17.0079C89.1723 21.131 89.6617 28.8524 85.8201 33.6002C83.4956 36.5989 79.7274 38.2481 76.0082 38.0732C72.4602 37.9732 68.9612 36.1741 66.8569 33.2004C64.4834 29.9269 63.9696 25.429 65.3154 21.6058C66.6611 17.7076 70.1846 14.734 74.173 14.0343ZM74.9071 18.7821C73.5858 19.1319 72.3624 19.9066 71.4815 20.9811C69.1325 23.8298 69.2304 28.4776 71.7506 31.2014C73.2432 32.8256 75.5678 33.6252 77.721 33.1754C79.6296 32.8006 81.3424 31.5012 82.2722 29.752C83.8626 26.7534 83.3977 22.6553 80.9019 20.3314C79.3115 18.8321 76.9869 18.2324 74.9071 18.7821Z" fill="black"/>
<path d="M96.1704 15.4834C98.9843 13.6843 102.728 13.1845 105.762 14.7338C106.716 15.1586 107.499 15.8832 108.258 16.6079C108.282 15.9332 108.258 15.2335 108.282 14.5339C109.922 14.5589 111.561 14.5339 113.225 14.5589V36.5987C113.201 39.9221 112.369 43.4455 110.02 45.8694C107.45 48.5431 103.511 49.3677 99.963 48.818C96.1704 48.2433 92.8671 45.4196 91.399 41.8462C92.8671 41.1216 94.4086 40.5468 95.9257 39.8721C96.7821 41.9212 98.5194 43.6704 100.697 44.0702C102.875 44.47 105.395 43.9203 106.814 42.0711C108.331 40.172 108.331 37.5732 108.258 35.2493C107.132 36.3738 105.835 37.3733 104.269 37.7481C100.868 38.7227 97.1246 37.5232 94.5065 35.1743C91.8639 32.8254 90.2979 29.2021 90.4447 25.6037C90.5181 21.5306 92.7692 17.6074 96.1704 15.4834ZM101.235 18.6819C99.7428 18.9318 98.3481 19.7814 97.3938 20.9559C95.0937 23.7546 95.0937 28.2275 97.4183 30.9763C98.7396 32.6005 100.868 33.5001 102.924 33.2752C104.857 33.0753 106.643 31.8259 107.597 30.1017C109.212 27.178 108.943 23.2049 106.765 20.656C105.42 19.0818 103.266 18.3071 101.235 18.6819Z" fill="black"/>
<path d="M128.493 16.7581C131.429 13.9593 135.956 13.0098 139.724 14.4841C143.297 15.8585 145.572 19.3319 146.722 22.9052C141.413 25.1542 136.127 27.3781 130.818 29.6271C131.552 31.0514 132.677 32.3508 134.194 32.8756C136.323 33.6502 138.868 33.3754 140.654 31.926C141.364 31.3763 141.927 30.6516 142.465 29.9519C143.811 30.8765 145.156 31.7761 146.502 32.7007C144.594 35.6243 141.388 37.6734 137.938 37.9982C134.121 38.473 130.059 36.9737 127.588 33.9251C123.526 29.1273 123.918 21.0811 128.493 16.7581ZM131.111 21.3809C130.279 22.6053 129.937 24.1047 129.961 25.579C133.509 24.0797 137.057 22.5804 140.605 21.0561C140.018 19.6567 138.599 18.8071 137.155 18.5822C134.831 18.1574 132.408 19.4318 131.111 21.3809Z" fill="black"/>
</g>
<defs>
<clipPath id="clip0">
<rect width="145.833" height="48.6111" fill="white" transform="translate(0.889099 0.361084)"/>
</clipPath>
</defs>
</svg>
