<svg width="148" height="40" viewBox="0 0 148 40" fill="none" xmlns="http://www.w3.org/2000/svg">
<g opacity="0.3" clip-path="url(#clip0)">
<path d="M108.655 3.00796C108.655 1.47021 109.934 0.222168 111.51 0.222168H144.429C146.006 0.222168 147.284 1.47021 147.284 3.00796V36.3258C147.284 37.864 146.006 39.1111 144.429 39.1111H111.51C109.934 39.1111 108.655 37.864 108.655 36.3263V3.00745V3.00796Z" fill="black"/>
<path d="M0.520325 32.7971H16.6414V27.502H6.35542V7.30216H0.520325V32.7971ZM24.8034 32.7971V15.2367H18.9688V32.7971H24.8034ZM21.8866 12.8396C23.9209 12.8396 25.1873 11.4911 25.1873 9.80489C25.1496 8.082 23.9209 6.77173 21.9254 6.77173C19.9293 6.77173 18.6242 8.08251 18.6242 9.80489C18.6242 11.4911 19.8906 12.8396 21.8484 12.8396H21.8866ZM27.5122 32.7971H33.3467V22.9902C33.3467 22.4654 33.3845 21.9406 33.5389 21.5667C33.9601 20.5181 34.9201 19.4317 36.5322 19.4317C38.644 19.4317 39.4888 21.0424 39.4888 23.4018V32.7966H45.3223V22.7281C45.3223 17.334 42.4438 14.8241 38.6047 14.8241C35.4575 14.8241 34.0753 16.5842 33.3075 17.7833H33.3467V15.2367H27.5122C27.5891 16.8846 27.5122 32.7971 27.5122 32.7971ZM53.5536 7.30216H47.7191V32.7971H53.5536V27.1036L55.0118 25.267L59.5799 32.7971H66.7574L59.0813 21.8962L65.7979 14.4803H58.7744C58.7744 14.4803 53.9763 21.1148 53.5536 21.9023V7.30216Z" fill="black"/>
<path d="M82.3601 25.4721C82.437 25.0213 82.5523 24.1563 82.5523 23.178C82.5523 18.6387 80.2488 14.0301 74.1843 14.0301C67.6971 14.0301 64.7028 19.1625 64.7028 23.8176C64.7028 29.5748 68.3497 33.1701 74.7212 33.1701C77.255 33.1701 79.5957 32.7967 81.5158 32.0097L80.7479 28.1549C79.1736 28.6772 77.5615 28.9388 75.566 28.9388C72.8409 28.9388 70.4615 27.8193 70.2692 25.4344L82.3601 25.4711V25.4721ZM70.231 21.5235C70.3845 20.025 71.3832 17.814 73.8779 17.814C76.526 17.814 77.1408 20.1744 77.1408 21.5235H70.2315H70.231ZM96.9536 7.30227V16.1279H96.8767C96.0319 14.8926 94.2663 14.0683 91.9261 14.0683C87.4345 14.0683 83.4812 17.6641 83.5189 23.8069C83.5189 29.5009 87.0893 33.2093 91.5412 33.2093C93.9599 33.2093 96.2623 32.1597 97.4145 30.1369H97.5293L97.7602 32.7972H102.942C102.865 31.5609 102.788 29.4259 102.788 27.3281V7.30176H96.9531L96.9536 7.30227ZM96.9536 24.6688C96.9536 25.1177 96.9154 25.568 96.8379 25.9414C96.4938 27.5531 95.1116 28.6757 93.4225 28.6757C91.0049 28.6757 89.4305 26.7284 89.4305 23.6569C89.4305 20.7732 90.7749 18.4505 93.4613 18.4505C95.2651 18.4505 96.5315 19.6863 96.8772 21.2215C96.9537 21.5597 96.9536 21.9346 96.9536 22.2712V24.6683V24.6688Z" fill="black"/>
<path d="M120.365 32.7764V15.216H114.53V32.7764H120.365H120.365ZM117.449 12.8188C119.483 12.8188 120.749 11.4703 120.749 9.78515C120.711 8.06176 119.483 6.75098 117.487 6.75098C115.49 6.75098 114.186 8.06176 114.186 9.78515C114.186 11.4703 115.452 12.8188 117.41 12.8188H117.448H117.449ZM123.594 32.7764H129.428V22.971C129.428 22.4467 129.466 21.9214 129.62 21.547C130.042 20.4979 131.002 19.412 132.614 19.412C134.725 19.412 135.57 21.0222 135.57 23.3831V32.7764H141.404V22.7078C141.404 17.3142 138.526 14.8044 134.687 14.8044C131.54 14.8044 130.158 16.564 129.39 17.7626H129.429V15.2165H123.595C123.671 16.8639 123.594 32.7769 123.594 32.7769V32.7764Z" fill="white"/>
</g>
<defs>
<clipPath id="clip0">
<rect width="146.806" height="38.8889" fill="white" transform="translate(0.500214 0.222168)"/>
</clipPath>
</defs>
</svg>
