<svg width="32" height="29" viewBox="0 0 32 29" fill="none" xmlns="http://www.w3.org/2000/svg">
<path fill-rule="evenodd" clip-rule="evenodd" d="M15.2609 17.6428C17.8683 22.1341 23.6429 23.6729 28.159 21.0799L29.0057 22.5383C23.6797 25.5964 16.8694 23.7816 13.7944 18.4849L15.2609 17.6428Z" fill="#FF5722"/>
<path d="M31.5278 22.3637C31.5278 24.4225 29.8496 26.0915 27.7795 26.0915C25.7093 26.0915 24.0311 24.4225 24.0311 22.3637C24.0311 20.305 25.7093 18.636 27.7795 18.636C29.8496 18.636 31.5278 20.305 31.5278 22.3637Z" fill="#FF5722"/>
<path fill-rule="evenodd" clip-rule="evenodd" d="M0.416687 12.6722C0.416687 5.75882 5.98249 0.138219 12.9009 0.000488281C11.9792 1.78615 11.3492 3.73943 11.072 5.8009C7.96672 6.5841 5.66437 9.44665 5.66437 12.8581C5.66437 16.8727 8.85291 20.1272 12.7862 20.1272C13.3194 20.1272 13.839 20.0674 14.3387 19.9539C15.5176 21.7607 17.1611 23.1082 19.0206 23.9304C17.2663 24.8353 15.2737 25.3466 13.161 25.3466C6.12251 25.3466 0.416687 19.6721 0.416687 12.6722ZM20.2494 23.2068C23.6602 20.9324 25.9053 17.0631 25.9053 12.6722C25.9053 7.24328 22.4731 2.61154 17.6488 0.806092C16.6099 2.40549 15.8981 4.2268 15.6052 6.18065C18.1364 7.29539 19.908 9.86555 19.908 12.8581C19.908 15.9082 18.0675 18.5195 15.4583 19.5982C16.6661 21.327 18.3613 22.556 20.2494 23.2068Z" fill="#FF5722"/>
</svg>
