<svg width="147" height="22" viewBox="0 0 147 22" fill="none" xmlns="http://www.w3.org/2000/svg">
<g opacity="0.3">
<path fill-rule="evenodd" clip-rule="evenodd" d="M80.6652 10.4249C80.6652 10.4249 79.2464 9.586 78.3691 9.26142C78.3691 9.26142 75.6533 8.05793 75.1145 7.48534C75.1145 7.48534 74.0561 6.5316 74.6759 5.42384C74.6759 5.42384 74.9353 4.69897 76.0538 4.69897C76.0538 4.69897 77.5099 4.77555 77.5099 5.91986V7.53407H82.7284L82.7193 5.15669C82.7193 5.15669 83.1207 1.26344 76.5725 1.09201C76.5725 1.09201 71.4223 0.768289 69.9452 3.42065C69.9452 3.42065 69.3655 4.01239 69.3655 6.07301V7.56192C69.3655 7.56192 69.3063 9.27969 70.2237 10.3866C70.2237 10.3866 70.7424 11.1123 72.0202 11.9129C72.0202 11.9129 74.6149 13.2487 76.1721 14.0136C76.1721 14.0136 77.7438 14.8716 77.5372 16.2369C77.5372 16.2369 77.4089 17.6388 75.8909 17.5814C75.8909 17.5814 74.503 17.5222 74.503 16.1473V14.5339H68.9423V16.8774C68.9423 16.8774 68.7866 21.3589 75.9318 21.3589C75.9318 21.3589 82.7594 21.4912 83.0779 16.7599V14.8516C83.077 14.8516 83.3191 11.9521 80.6652 10.4249ZM53.9484 1.6498L52.201 12.12H51.7924L50.1233 1.74378H41.4064L40.9695 20.7045H46.1307L46.1926 6.41848H46.5985L49.3342 20.7019H54.7639L57.4659 6.4237H57.8254L57.9501 20.7045H63.1386L62.5798 1.6498H53.9484ZM23.2253 1.72899L19.7916 20.6827H25.3477L27.3818 5.98686H27.8386L29.8718 20.6827H35.427L31.9941 1.72899H23.2253ZM139.811 10.1638V12.9598H141.236V15.9611C141.236 17.4282 139.924 17.4552 139.924 17.4552C138.33 17.4552 138.39 16.0611 138.39 16.0611V5.67968C138.39 4.61021 139.805 4.55278 139.805 4.55278C141.163 4.55278 141.172 5.82849 141.172 5.82849V7.40702H146.403C146.574 4.32565 145.932 3.5799 145.932 3.5799C144.634 0.793531 139.725 0.945815 139.725 0.945815C132.181 0.945815 133.019 6.48027 133.019 6.48027V16.518C133.181 21.7087 140.614 21.1814 140.74 21.177C144.046 20.8272 145.045 19.8221 145.045 19.8221C145.964 19.1695 146.2 18.2653 146.2 18.2653C146.463 17.7389 146.529 16.0611 146.529 16.0611V10.1638H139.811ZM122.471 13.2487H122.243L116.934 1.65502H110.583V20.7062H115.752L115.443 9.11435H115.674L121.174 20.7062H127.332V1.65328H122.097L122.471 13.2487ZM97.9644 15.9593C97.9644 15.9593 98.039 17.5231 96.5228 17.5231C96.5228 17.5231 94.9283 17.6049 94.9283 15.9985L94.9119 1.66633H89.242V15.8845C89.242 15.8845 88.6604 21.2658 96.6029 21.2658C96.6029 21.2658 103.505 21.3441 103.505 16.1316V1.6672H97.9644V15.9593ZM12.4161 10.4249C12.4161 10.4249 10.9991 9.586 10.1209 9.26229C10.1209 9.26229 7.40695 8.05967 6.86817 7.48621C6.86817 7.48621 5.80973 6.53073 6.43041 5.42558C6.43041 5.42558 6.68888 4.70071 7.80648 4.70071C7.80648 4.70071 9.26355 4.77642 9.26355 5.92073V7.53494H14.4839L14.4739 5.15669C14.4739 5.15669 14.8725 1.26344 8.32705 1.09288C8.32705 1.09288 7.83378 1.06242 7.11025 1.09723C7.11025 1.09723 3.14496 1.30085 1.72703 3.38062C1.71884 3.39629 1.70701 3.4076 1.69882 3.42153C1.69882 3.42153 1.12 4.01239 1.12 6.07388V7.56279C1.12 7.56279 1.05993 9.28056 1.97822 10.3874C1.97822 10.3874 2.49697 11.1132 3.77475 11.9138C3.77475 11.9138 6.36853 13.2495 7.9257 14.0144C7.9257 14.0144 9.49926 14.8707 9.29085 16.2378C9.29085 16.2378 9.16252 17.6397 7.64539 17.5822C7.64539 17.5822 6.25749 17.5231 6.25749 16.1482V14.5339H0.695889V16.8791C0.695889 16.8791 0.540263 21.3606 7.68544 21.3606C7.68544 21.3606 14.5112 21.4929 14.8324 16.7616V14.855C14.8324 14.8533 15.0709 11.9521 12.4161 10.4249Z" fill="black"/>
</g>
</svg>
